<?xml version="1.0" standalone="no"?>
<!DOCTYPE svg PUBLIC "-//W3C//DTD SVG 20010904//EN"
 "http://www.w3.org/TR/2001/REC-SVG-20010904/DTD/svg10.dtd">
<svg version="1.0" xmlns="http://www.w3.org/2000/svg"
 width="4469.000000pt" height="4469.000000pt" viewBox="0 0 4469.000000 4469.000000"
 preserveAspectRatio="xMidYMid meet">
<metadata>
Created by potrace 1.14, written by Peter Selinger 2001-2017
</metadata>
<g transform="translate(0.000000,4469.000000) scale(0.100000,-0.100000)"
fill="#000000" stroke="none">
<path d="M34577 40964 c-1 -1 -101 -4 -222 -8 -121 -4 -240 -9 -265 -11 -25
-2 -88 -6 -140 -10 -52 -4 -111 -8 -130 -10 -19 -2 -67 -6 -105 -9 -39 -4 -79
-8 -90 -10 -11 -2 -51 -7 -90 -11 -38 -4 -77 -8 -85 -10 -8 -1 -42 -6 -75 -10
-32 -4 -68 -9 -79 -11 -11 -2 -38 -6 -61 -9 -284 -41 -634 -114 -1045 -219
-129 -33 -618 -186 -697 -217 -15 -6 -37 -15 -48 -19 -11 -4 -83 -31 -160 -60
-77 -29 -171 -66 -210 -82 -38 -16 -80 -33 -92 -39 -38 -15 -64 -27 -143 -62
-41 -18 -100 -44 -130 -58 -68 -30 -487 -239 -555 -277 -27 -16 -72 -41 -100
-56 -47 -26 -123 -70 -218 -125 -56 -32 -232 -142 -337 -209 -151 -98 -542
-376 -586 -417 -6 -5 -21 -17 -34 -25 -26 -18 -39 -28 -200 -160 -329 -268
-640 -559 -936 -876 -66 -71 -134 -144 -150 -163 -16 -19 -38 -43 -49 -55 -17
-17 -223 -263 -253 -301 -4 -5 -42 -53 -83 -105 -117 -147 -291 -387 -420
-580 -116 -174 -309 -484 -309 -497 0 -3 -6 -14 -14 -22 -7 -9 -30 -47 -51
-86 -21 -38 -55 -101 -77 -140 -61 -109 -291 -578 -343 -700 -26 -60 -53 -123
-61 -140 -7 -16 -45 -111 -84 -209 -60 -154 -68 -181 -57 -195 14 -16 297
-358 328 -396 10 -11 34 -41 55 -66 22 -26 46 -55 54 -65 8 -11 75 -91 149
-179 73 -88 149 -180 169 -205 21 -24 53 -62 72 -85 19 -23 51 -61 72 -85 40
-50 295 -357 337 -407 14 -17 42 -51 62 -75 74 -88 311 -374 327 -393 27 -32
505 -608 523 -630 10 -11 34 -41 55 -66 22 -25 55 -65 76 -90 35 -43 153 -184
187 -224 9 -11 59 -72 111 -135 52 -63 176 -212 275 -331 99 -118 198 -237
220 -264 22 -27 45 -53 50 -59 6 -6 62 -74 125 -151 63 -77 124 -151 136 -165
20 -21 216 -258 332 -400 21 -24 54 -65 76 -90 21 -25 45 -54 55 -65 476 -574
856 -1031 860 -1035 4 -3 35 -41 71 -85 35 -44 67 -82 70 -85 5 -4 217 -260
389 -469 20 -24 50 -60 67 -80 18 -20 91 -108 164 -196 73 -88 142 -171 154
-185 11 -14 142 -171 291 -350 148 -179 272 -327 275 -330 3 -3 35 -41 70 -85
35 -44 74 -91 87 -105 17 -19 249 -299 461 -555 9 -12 40 -47 67 -80 28 -33
58 -69 67 -80 9 -11 112 -135 228 -275 117 -140 229 -275 250 -300 21 -25 95
-115 166 -200 70 -85 133 -160 139 -166 5 -6 22 -26 37 -45 23 -30 615 -743
672 -809 11 -14 55 -66 96 -115 41 -50 77 -92 80 -95 3 -3 34 -41 70 -85 35
-44 67 -82 70 -85 3 -3 37 -43 75 -90 38 -47 75 -91 82 -98 7 -8 26 -30 41
-50 15 -20 34 -43 42 -52 8 -9 31 -35 50 -59 19 -24 47 -57 62 -75 32 -38 189
-226 240 -287 20 -24 75 -91 123 -149 47 -58 94 -114 103 -125 10 -11 60 -72
112 -135 52 -63 105 -126 117 -140 11 -14 169 -202 349 -419 l327 -393 46 6
c25 3 57 8 71 11 68 13 236 47 245 49 6 2 28 6 50 10 22 5 76 17 120 28 44 11
91 22 105 24 14 3 50 12 80 20 65 17 67 18 145 37 273 68 943 295 1142 387 24
11 45 20 48 20 5 0 23 8 143 61 26 12 72 33 102 46 30 13 71 32 90 40 57 26
421 208 496 248 358 195 792 468 1064 668 30 23 80 59 110 81 30 23 57 43 60
46 3 3 32 25 65 50 396 294 977 838 1325 1240 30 35 73 85 95 110 22 25 58 68
80 95 22 27 52 63 67 80 15 18 64 79 108 136 44 57 88 114 98 126 9 12 24 32
32 44 8 12 24 34 36 48 137 174 437 634 607 931 151 265 378 717 447 891 10
26 28 66 39 90 104 229 279 720 375 1049 41 144 111 406 120 454 3 12 14 59
25 106 11 47 22 96 25 110 3 14 10 50 15 80 6 30 13 66 16 80 3 14 7 36 10 50
2 14 7 37 10 53 3 15 7 37 9 50 3 12 7 40 11 62 3 22 10 65 15 95 15 86 19
111 25 165 3 28 10 75 15 105 5 30 12 80 15 110 3 30 7 71 9 90 8 62 16 143
21 208 3 34 7 88 10 120 15 185 19 320 19 707 1 379 -5 597 -19 730 -2 22 -7
72 -11 110 -3 39 -7 86 -9 105 -11 122 -23 229 -30 270 -2 14 -7 50 -10 80 -6
51 -68 432 -80 490 -3 14 -8 39 -10 55 -11 61 -36 178 -39 184 -2 3 -7 23 -10
43 -3 21 -11 57 -17 80 -10 43 -23 93 -32 134 -96 402 -292 1001 -442 1349 -7
17 -31 73 -53 125 -161 381 -409 855 -657 1255 -127 206 -418 626 -512 740 -4
6 -37 48 -73 95 -35 47 -67 87 -70 90 -3 3 -50 59 -104 125 -103 124 -216 254
-251 290 -11 12 -42 45 -69 75 -76 84 -301 313 -422 430 -167 160 -262 244
-482 431 -428 363 -1017 762 -1562 1058 -193 105 -790 391 -816 391 -2 0 -23
9 -47 19 -105 49 -371 148 -612 230 -208 71 -693 211 -782 227 -15 3 -46 10
-68 16 -22 5 -47 12 -55 13 -84 19 -220 47 -240 51 -14 2 -45 9 -70 14 -25 5
-58 12 -75 15 -305 51 -387 63 -460 71 -27 3 -56 7 -64 10 -8 3 -46 7 -85 10
-39 3 -78 7 -86 9 -8 2 -46 7 -85 10 -38 3 -88 8 -110 10 -22 3 -80 7 -130 11
-49 3 -115 7 -145 9 -103 8 -647 23 -653 19z"/>
<path d="M20870 40123 c0 -4 -15 -24 -33 -43 -18 -19 -64 -73 -102 -120 -38
-47 -80 -96 -92 -110 -12 -14 -113 -133 -223 -265 -111 -132 -242 -287 -290
-345 -274 -325 -394 -468 -413 -490 -12 -14 -53 -63 -92 -110 -66 -80 -107
-128 -130 -154 -6 -6 -55 -65 -110 -131 -54 -66 -102 -122 -105 -125 -3 -3
-28 -32 -55 -65 -27 -33 -77 -92 -110 -131 -33 -39 -69 -82 -80 -95 -21 -25
-181 -215 -315 -374 -42 -49 -125 -148 -185 -220 -60 -71 -157 -186 -215 -255
-58 -69 -112 -134 -122 -145 -9 -11 -48 -58 -88 -105 -40 -47 -79 -94 -89
-105 -9 -11 -171 -204 -361 -430 -190 -225 -352 -418 -360 -428 -8 -10 -24
-29 -35 -41 -22 -25 -58 -67 -195 -231 -51 -60 -109 -130 -130 -155 -100 -118
-236 -281 -373 -445 -83 -99 -154 -182 -157 -185 -3 -3 -62 -72 -130 -155 -69
-82 -128 -152 -131 -155 -4 -4 -128 -152 -503 -599 -142 -170 -170 -203 -181
-215 -13 -14 -297 -352 -405 -481 -45 -55 -86 -102 -89 -105 -3 -3 -26 -30
-51 -60 -25 -30 -47 -57 -50 -60 -3 -3 -60 -70 -127 -150 -199 -238 -812 -967
-828 -984 -6 -6 -28 -33 -50 -61 -22 -27 -47 -56 -55 -65 -8 -9 -33 -38 -56
-65 -86 -104 -103 -125 -688 -819 -171 -203 -339 -403 -374 -445 -35 -42 -84
-100 -110 -130 -26 -30 -56 -66 -67 -80 -10 -14 -22 -28 -25 -31 -7 -7 -136
-159 -300 -355 -74 -88 -137 -162 -140 -165 -3 -3 -22 -26 -43 -52 -21 -26
-43 -53 -50 -60 -7 -7 -57 -67 -112 -133 -55 -66 -109 -131 -121 -145 -41 -46
-465 -551 -640 -760 -71 -85 -145 -172 -165 -194 l-36 -38 0 1373 0 1374
-2085 3 -2086 2 0 -3593 0 -3593 -40 -55 c-23 -30 -167 -227 -321 -439 -154
-212 -317 -436 -363 -498 -46 -62 -93 -127 -106 -145 -13 -18 -68 -93 -122
-167 -54 -74 -112 -153 -128 -175 -16 -22 -53 -74 -84 -115 -30 -41 -99 -136
-153 -210 -54 -74 -121 -166 -150 -205 -28 -38 -87 -119 -130 -180 -44 -60
-83 -114 -88 -120 -13 -16 -197 -268 -467 -640 -140 -192 -258 -354 -263 -360
-4 -5 -34 -46 -66 -90 -32 -44 -143 -197 -248 -340 -104 -143 -245 -336 -313
-430 -68 -93 -148 -204 -178 -245 -80 -108 -121 -164 -191 -260 -34 -47 -65
-89 -69 -95 -4 -5 -111 -152 -237 -325 -126 -173 -238 -327 -249 -342 -12 -14
-50 -67 -86 -117 -36 -50 -101 -139 -145 -198 -43 -60 -126 -173 -183 -252
-58 -80 -140 -192 -183 -250 -43 -58 -89 -122 -103 -141 -14 -19 -101 -138
-193 -265 -92 -126 -176 -241 -186 -255 -10 -14 -55 -75 -100 -137 -45 -61
-111 -153 -147 -203 -36 -50 -72 -99 -80 -109 -8 -10 -40 -53 -70 -95 -30 -42
-91 -126 -135 -186 -44 -60 -99 -135 -122 -167 -23 -32 -66 -92 -97 -133 -107
-146 -325 -446 -370 -508 -17 -24 -41 -56 -53 -72 -13 -15 -23 -32 -23 -36 0
-5 1627 -9 3642 -9 l3643 0 68 85 c37 47 73 92 80 100 7 8 37 47 67 85 30 38
60 77 67 85 7 8 60 76 119 150 59 74 127 160 151 190 24 30 49 62 56 70 7 8
72 92 146 185 74 94 167 211 206 260 75 95 214 270 435 550 74 94 140 177 147
185 40 50 309 389 638 805 209 264 434 548 500 631 66 83 156 197 200 253 44
57 88 113 99 124 10 12 30 38 45 57 14 19 28 37 31 40 5 4 531 668 1199 1514
69 87 184 231 254 320 70 88 140 177 155 195 15 19 59 74 97 122 39 48 99 125
135 171 36 46 70 90 77 98 18 22 947 1195 1461 1844 101 127 188 238 195 246
7 8 46 58 87 110 41 52 80 102 87 110 46 58 491 620 693 875 135 171 252 319
262 330 9 11 62 79 119 150 57 72 153 193 214 270 61 77 206 259 321 405 115
146 295 372 399 504 105 131 206 259 226 285 19 25 150 190 289 366 265 334
507 640 895 1130 126 160 234 295 240 301 5 6 19 23 30 38 11 16 25 33 30 40
6 6 69 85 140 176 71 91 132 167 135 170 3 3 70 86 147 185 125 159 454 575
486 615 7 8 28 35 47 60 19 25 37 47 40 50 3 3 134 167 290 365 157 198 290
367 297 375 37 46 266 335 311 394 30 37 60 75 68 85 16 20 67 83 254 320 80
101 152 193 160 203 21 27 37 17 97 -60 45 -58 197 -246 297 -367 46 -56 194
-237 209 -255 28 -35 102 -125 107 -130 3 -3 21 -25 40 -50 19 -25 69 -86 110
-135 41 -50 91 -110 110 -134 35 -43 136 -167 168 -206 10 -11 55 -67 102
-125 47 -58 87 -107 90 -110 3 -3 25 -30 50 -60 24 -30 72 -89 106 -130 34
-41 198 -241 364 -445 165 -203 311 -381 323 -395 13 -14 38 -45 57 -70 19
-25 37 -47 40 -50 3 -3 35 -41 70 -85 36 -44 74 -91 86 -105 12 -14 137 -167
279 -340 141 -173 272 -333 290 -355 18 -22 137 -168 265 -325 128 -157 245
-299 259 -316 14 -17 33 -40 41 -50 17 -22 186 -229 212 -259 9 -11 152 -186
318 -390 167 -203 319 -390 340 -415 32 -38 374 -458 435 -533 11 -13 36 -44
57 -68 20 -24 111 -136 203 -249 92 -113 182 -223 200 -245 19 -22 46 -56 62
-75 15 -19 36 -44 45 -55 9 -11 70 -85 134 -165 65 -80 120 -147 123 -150 4
-3 24 -27 46 -55 21 -27 42 -52 45 -55 3 -3 41 -50 84 -105 44 -55 85 -104 90
-110 6 -5 27 -30 46 -55 19 -25 40 -50 45 -56 6 -7 65 -78 131 -160 65 -81
126 -155 134 -164 8 -9 42 -49 75 -90 33 -41 62 -77 65 -80 3 -3 44 -52 90
-110 47 -58 92 -114 102 -125 29 -34 351 -429 383 -470 17 -21 35 -43 40 -49
6 -6 71 -85 145 -176 74 -91 142 -174 152 -185 9 -11 91 -112 183 -225 92
-113 182 -223 200 -245 56 -67 1078 -1318 1105 -1351 71 -89 375 -460 380
-464 3 -3 33 -39 65 -80 33 -41 62 -77 65 -80 5 -5 81 -97 107 -130 7 -8 88
-107 180 -220 92 -113 173 -212 180 -220 55 -69 119 -146 123 -150 3 -3 21
-25 40 -50 19 -25 37 -47 40 -50 3 -3 107 -129 230 -280 123 -151 226 -277
230 -280 3 -3 21 -25 40 -50 19 -25 37 -47 40 -50 5 -5 83 -99 107 -130 6 -8
40 -49 74 -90 91 -110 115 -140 253 -310 69 -85 131 -162 138 -170 15 -16 184
-224 238 -290 45 -56 183 -223 226 -275 18 -22 119 -146 225 -275 249 -305
339 -416 408 -500 16 -19 176 -215 356 -435 179 -220 334 -409 343 -420 10
-11 46 -56 82 -100 35 -44 67 -82 70 -85 3 -3 49 -59 103 -125 53 -66 112
-138 131 -160 l34 -40 3540 0 c3145 0 3539 2 3532 15 -5 8 -19 27 -32 42 -33
37 -37 43 -198 243 -80 99 -147 182 -150 185 -3 3 -44 52 -90 110 -46 58 -87
107 -90 110 -3 3 -21 25 -40 50 -19 25 -45 56 -56 70 -17 19 -408 500 -637
784 -18 22 -36 44 -42 50 -5 6 -75 92 -155 191 -80 99 -152 189 -162 200 -9
11 -71 88 -138 170 -67 83 -137 168 -155 190 -37 46 -254 312 -302 371 -156
194 -441 545 -462 570 -31 37 -41 50 -251 309 -89 110 -172 211 -184 225 -11
14 -37 45 -56 70 -19 25 -37 47 -40 50 -5 4 -381 468 -450 554 -8 10 -27 33
-41 50 -14 17 -124 153 -244 301 -121 149 -222 272 -225 275 -3 3 -61 75 -130
160 -68 85 -126 157 -129 160 -3 3 -33 39 -66 80 -33 41 -67 84 -76 95 -10 11
-63 76 -118 145 -56 69 -114 141 -130 160 -16 19 -73 89 -126 155 -53 66 -112
138 -130 160 -18 22 -79 96 -135 165 -55 69 -109 134 -118 145 -9 11 -62 77
-117 145 -55 69 -102 127 -105 130 -3 3 -53 63 -110 135 -91 113 -315 388
-415 510 -18 22 -87 108 -154 190 -67 83 -134 166 -150 185 -49 60 -345 424
-358 440 -12 16 -113 140 -162 200 -16 19 -120 148 -232 285 -111 138 -214
264 -228 281 -40 49 -368 453 -509 627 -26 32 -52 64 -57 70 -6 7 -60 73 -120
147 -190 235 -465 574 -499 615 -19 22 -55 67 -82 100 -69 86 -178 219 -184
225 -3 3 -24 30 -47 60 -23 30 -50 64 -60 75 -10 11 -75 90 -143 175 -69 85
-129 160 -135 166 -5 6 -23 28 -40 49 -26 33 -183 226 -264 325 -16 19 -80 98
-142 175 -63 77 -121 149 -130 160 -46 55 -207 253 -224 276 -11 15 -78 98
-150 185 -71 88 -135 166 -142 174 -46 56 -571 702 -593 730 -16 19 -82 100
-147 180 -65 80 -157 192 -203 250 -47 58 -92 114 -101 125 -10 11 -63 76
-118 145 -56 69 -114 141 -130 160 -16 19 -73 89 -126 155 -53 66 -112 138
-130 160 -19 22 -75 92 -127 156 -93 115 -186 231 -522 644 -99 121 -194 239
-213 262 -19 23 -39 48 -46 55 -7 7 -33 40 -59 73 -25 33 -54 69 -65 80 -10
11 -54 65 -98 120 -43 55 -85 106 -92 113 -7 8 -26 30 -41 50 -15 21 -30 39
-33 42 -3 3 -63 77 -134 164 -71 88 -134 167 -141 175 -7 9 -60 75 -119 146
-58 72 -113 139 -123 151 -9 11 -62 76 -117 145 -127 158 -128 159 -140 173
-6 6 -47 56 -90 111 -44 55 -82 102 -86 105 -3 3 -84 102 -180 220 -206 255
-166 206 -341 421 -79 97 -246 304 -373 459 -126 156 -294 362 -373 459 -78
97 -148 183 -155 191 -7 8 -41 51 -77 95 -35 44 -67 82 -70 85 -3 3 -41 50
-85 105 -68 85 -185 229 -244 300 -9 11 -43 54 -76 95 -64 79 -94 116 -110
134 -6 6 -26 31 -45 56 -19 25 -37 47 -40 50 -3 3 -44 52 -90 110 -46 58 -108
134 -138 170 -29 36 -59 72 -65 80 -34 43 -142 176 -147 180 -3 3 -21 25 -39
50 -19 25 -39 50 -45 55 -6 6 -65 78 -131 160 -66 83 -122 152 -125 155 -3 3
-44 52 -90 110 -124 154 -318 393 -333 410 -7 8 -61 74 -118 145 -165 203
-193 238 -374 461 -93 115 -206 253 -250 307 -44 54 -96 118 -115 142 -39 49
-101 125 -691 850 -228 281 -455 560 -504 620 -49 61 -136 169 -194 240 -58
72 -113 139 -123 150 -9 11 -89 110 -178 220 -154 189 -180 218 -180 198z"/>
<path d="M20389 25756 c-2 -3 -47 -7 -99 -11 -111 -8 -148 -11 -210 -20 -25
-3 -61 -8 -80 -11 -412 -55 -893 -203 -1295 -399 -362 -176 -659 -374 -995
-663 -111 -95 -350 -342 -458 -472 -109 -131 -110 -132 -156 -195 -17 -22 -33
-42 -36 -45 -11 -10 -148 -217 -204 -309 -70 -115 -114 -196 -176 -321 -79
-160 -172 -370 -163 -370 3 0 1 -6 -5 -13 -10 -12 -127 -354 -136 -398 -3 -13
-11 -49 -19 -79 -39 -144 -79 -352 -101 -517 -3 -24 -8 -60 -11 -80 -33 -245
-37 -692 -10 -943 7 -63 26 -214 30 -240 4 -27 18 -112 20 -120 1 -3 5 -25 9
-50 19 -108 52 -242 121 -480 77 -271 260 -678 431 -959 82 -137 233 -360 288
-426 14 -16 60 -72 102 -124 214 -262 518 -548 788 -743 383 -276 774 -479
1199 -622 142 -48 343 -106 417 -120 14 -2 59 -12 100 -21 41 -9 89 -18 105
-20 17 -3 41 -7 55 -10 14 -2 36 -7 50 -10 14 -2 50 -7 80 -10 30 -3 69 -8 87
-11 85 -16 334 -28 538 -28 238 1 359 9 595 39 22 3 111 17 135 21 11 2 47 9
80 15 33 6 71 13 85 16 105 19 354 87 510 140 429 145 847 364 1220 641 151
112 373 303 483 417 178 183 282 302 390 445 31 41 65 86 75 100 107 141 304
470 386 644 145 309 232 544 306 831 39 149 83 364 94 460 4 28 8 61 11 75 4
23 9 70 20 190 10 110 15 237 15 395 0 162 -2 214 -15 385 -6 78 -7 84 -25
215 -13 90 -13 95 -34 215 -4 22 -15 78 -30 148 -3 12 -12 50 -21 85 -9 34
-18 69 -20 77 -8 39 -69 240 -96 318 -150 429 -365 833 -637 1197 -191 254
-453 533 -682 725 -29 25 -58 50 -64 55 -32 30 -256 195 -264 195 -6 0 -12 4
-14 8 -3 8 -106 77 -218 147 -277 174 -700 364 -1010 454 -75 23 -288 78 -325
85 -11 3 -40 9 -65 14 -25 6 -62 13 -84 16 -21 4 -41 8 -45 10 -3 2 -33 7 -66
11 -33 4 -69 9 -80 10 -67 11 -107 15 -165 21 -36 3 -81 8 -100 11 -43 6 -605
14 -611 9z"/>
<path d="M570 14340 c-1 -21 -1 -800 -1 -825 1 -20 7 -20 451 -20 248 0 450
-2 451 -5 0 -3 0 -1336 1 -2962 l1 -2958 493 0 c464 0 494 1 495 18 0 9 1
1342 1 2962 l1 2945 451 0 451 0 1 428 c1 305 -2 427 -10 428 -6 0 -635 1
-1399 2 -1227 2 -1387 0 -1387 -13z"/>
<path d="M4967 14353 c-1 -1 -38 -3 -81 -4 -44 -1 -100 -6 -125 -11 -25 -5
-62 -11 -82 -13 -20 -3 -76 -16 -125 -31 -406 -117 -637 -419 -691 -900 -11
-92 -10 -4802 0 -4879 13 -99 17 -116 42 -211 90 -340 284 -553 602 -660 76
-25 92 -30 143 -40 14 -3 32 -7 40 -9 54 -16 217 -20 770 -20 344 0 648 3 675
7 90 13 109 16 160 28 223 49 417 165 544 324 71 89 150 253 177 367 18 76 34
163 41 224 10 88 10 4788 0 4870 -8 65 -15 112 -22 135 -2 8 -7 31 -10 50 -12
74 -74 234 -121 311 -91 150 -219 268 -374 342 -80 37 -215 81 -290 92 -25 4
-54 9 -65 11 -68 13 -228 17 -688 18 -285 1 -519 0 -520 -1z m818 -866 c138
-34 208 -79 251 -162 46 -89 44 19 41 -2384 -2 -2111 -3 -2259 -19 -2307 -34
-99 -105 -163 -210 -190 -51 -13 -118 -16 -363 -16 -165 0 -320 3 -344 7 -160
24 -262 117 -291 263 -6 28 -8 943 -7 2297 l2 2250 26 56 c55 117 137 168 304
192 33 4 589 -1 610 -6z"/>
<path d="M7918 14352 c-14 -3 -15 -353 -15 -3393 l0 -3390 1056 4 c581 2 1067
6 1081 10 14 3 56 11 94 17 154 24 370 114 460 190 16 14 44 38 62 53 114 97
205 281 250 502 11 54 15 4822 4 4910 -43 348 -137 572 -319 756 -149 150
-365 259 -601 303 -134 25 -140 25 -240 32 -93 6 -1802 12 -1832 6z m1711
-866 c129 -30 199 -83 248 -184 55 -116 52 12 52 -2417 1 -2241 0 -2250 -20
-2295 -41 -91 -123 -143 -245 -156 -30 -4 -216 -7 -414 -8 l-360 -1 0 2531 c0
1392 2 2533 4 2535 7 7 707 2 735 -5z"/>
<path d="M12827 14354 c-1 -1 -50 -4 -108 -7 -233 -13 -468 -90 -616 -202
-130 -97 -234 -237 -295 -393 -36 -92 -75 -254 -85 -357 -10 -103 -10 -4802 0
-4876 4 -31 10 -67 12 -80 3 -13 8 -40 11 -59 3 -19 17 -73 31 -120 115 -390
408 -623 853 -677 85 -10 1296 -10 1379 0 198 25 388 94 521 190 218 157 340
391 387 742 10 76 11 4777 0 4868 -39 348 -157 591 -367 752 -153 117 -372
194 -606 211 -71 5 -1111 12 -1117 8z m821 -868 c140 -28 217 -87 268 -206 19
-44 19 -102 21 -2295 3 -2390 4 -2316 -41 -2403 -35 -67 -113 -122 -203 -143
-52 -12 -615 -16 -692 -4 -136 20 -240 99 -276 210 -20 59 -20 105 -20 2325
l0 2265 24 59 c43 107 140 176 269 192 26 3 48 6 49 7 5 6 572 -1 601 -7z"/>
<path d="M17045 14352 c-21 -3 -22 -32 -16 -782 l1 -75 450 0 450 0 1 -1070
c0 -588 1 -1920 2 -2960 l2 -1890 489 -3 c288 -1 492 2 495 7 3 5 6 1338 5
2963 l-1 2953 451 0 451 0 1 428 c2 390 1 427 -15 428 -51 2 -2749 4 -2766 1z"/>
<path d="M20388 14352 c-14 -3 -16 -325 -16 -3393 l0 -3389 1193 0 1192 0 -1
428 -1 427 -698 0 -697 0 0 1103 0 1102 620 0 620 0 0 430 0 430 -620 0 -620
0 0 1003 0 1002 698 0 697 0 1 428 1 427 -31 1 c-115 2 -2326 3 -2338 1z"/>
<path d="M23440 14350 c-4 -3 -8 -1529 -8 -3393 l0 -3387 494 0 494 0 0 1360
c0 1081 3 1360 13 1361 98 6 503 2 512 -6 10 -8 62 -214 89 -350 2 -11 12 -51
21 -90 9 -38 19 -81 21 -95 3 -14 25 -113 50 -220 25 -107 57 -244 70 -305 14
-60 27 -117 29 -125 2 -8 13 -58 25 -110 12 -52 23 -102 25 -110 2 -8 18 -78
35 -155 17 -77 33 -147 35 -155 2 -8 10 -46 19 -85 15 -70 58 -255 76 -330 8
-35 79 -343 84 -370 4 -16 30 -130 31 -135 1 -3 5 -22 9 -42 l8 -38 469 0
c310 0 469 3 469 10 0 9 -119 517 -184 790 -14 58 -35 146 -46 195 -12 50 -30
126 -40 170 -10 44 -30 130 -44 190 -15 61 -40 166 -56 235 -78 330 -122 520
-121 527 0 2 -5 17 -10 35 -7 27 -82 342 -94 398 -2 8 -13 53 -24 100 -12 47
-24 98 -27 113 -2 16 -6 33 -7 39 -1 5 23 23 53 40 260 145 430 418 476 763 3
28 10 73 14 100 9 54 7 2098 -3 2155 -3 19 -8 49 -11 65 -3 17 -10 54 -16 84
-34 182 -134 376 -254 497 -122 121 -326 224 -496 249 -25 4 -47 8 -50 10 -3
2 -47 7 -99 10 -105 8 -2018 13 -2031 5z m1695 -869 c167 -36 251 -141 281
-351 9 -61 8 -1590 0 -1665 -10 -79 -41 -169 -76 -219 -27 -39 -64 -76 -76
-76 -3 0 -18 -8 -32 -19 -56 -39 -119 -45 -487 -45 l-320 -1 -3 1185 c-1 652
0 1190 2 1195 6 16 635 12 711 -4z"/>
<path d="M27229 14352 l-26 -3 0 -3390 0 -3389 494 0 493 0 0 1360 c0 748 3
1360 8 1361 62 7 508 2 518 -6 10 -8 54 -187 89 -358 2 -10 6 -26 9 -35 3 -9
7 -28 10 -42 2 -14 14 -64 25 -112 11 -47 23 -101 26 -119 3 -18 8 -35 10 -39
2 -4 7 -22 10 -41 3 -19 8 -42 11 -51 3 -9 7 -27 9 -40 2 -13 13 -61 25 -108
11 -47 33 -143 49 -215 93 -409 179 -785 185 -812 13 -55 28 -121 32 -138 12
-63 47 -214 54 -240 5 -16 11 -41 14 -55 2 -14 12 -58 21 -99 9 -40 18 -78 19
-85 1 -6 5 -20 8 -31 4 -11 9 -37 13 -57 l6 -38 470 0 470 0 -4 28 c-3 15 -17
74 -31 132 -22 94 -42 177 -51 220 -2 8 -10 42 -18 75 -9 33 -18 74 -21 90 -3
17 -12 57 -21 90 -8 33 -25 101 -36 150 -11 50 -22 97 -24 105 -2 8 -18 76
-35 150 -18 74 -34 142 -36 150 -2 8 -13 56 -25 105 -11 50 -25 108 -30 130
-5 22 -12 51 -15 65 -3 14 -14 59 -24 100 -10 41 -21 86 -24 100 -6 31 -8 40
-41 175 -15 61 -29 121 -31 135 -3 14 -27 117 -54 230 -27 113 -54 228 -60
255 -7 28 -13 57 -15 65 -2 8 -17 70 -33 137 -21 88 -26 125 -18 131 6 4 31
18 56 31 144 76 267 205 349 368 29 59 79 194 87 238 2 11 8 40 14 65 12 56
18 89 27 165 10 74 11 2065 1 2155 -59 563 -380 888 -926 935 -78 7 -1958 13
-2013 7z m1661 -866 c63 -10 149 -53 189 -95 55 -59 81 -120 106 -246 6 -34 8
-1649 1 -1681 -2 -12 -7 -38 -10 -57 -18 -110 -87 -211 -176 -257 -77 -39
-116 -43 -455 -45 -181 -1 -336 1 -342 3 -10 3 -13 251 -13 1191 0 653 2 1190
4 1192 8 7 648 3 696 -5z"/>
<path d="M30971 14350 c-5 -3 -8 -1529 -8 -3392 l0 -3388 1193 0 1192 0 0 429
0 428 -696 0 -697 0 -3 1101 -2 1102 620 0 620 0 0 430 0 430 -620 0 -620 0 2
1003 3 1002 685 1 c377 1 690 2 697 3 8 1 11 112 10 428 l-2 426 -1183 1
c-651 1 -1187 -1 -1191 -4z"/>
<path d="M34049 14352 l-26 -3 1 -3387 1 -3387 493 -3 492 -2 0 2147 1 2148
150 -450 c82 -247 152 -457 154 -465 2 -8 46 -143 98 -300 52 -157 201 -609
332 -1005 l238 -720 0 -677 0 -678 493 0 494 0 0 3390 0 3390 -32 1 c-39 1
-916 1 -939 0 -15 -1 -16 -133 -16 -1551 0 -853 -2 -1552 -5 -1555 -2 -2 -98
296 -212 663 -114 367 -230 739 -258 827 -27 88 -51 169 -54 180 -2 11 -8 31
-14 45 -5 14 -21 61 -34 105 -14 44 -48 154 -76 245 -49 156 -98 315 -255 820
-37 118 -69 217 -71 219 -4 5 -916 7 -955 3z"/>
<path d="M38887 14354 c-1 -1 -40 -4 -87 -8 -47 -3 -96 -8 -110 -11 -13 -2
-42 -7 -63 -10 -63 -10 -197 -51 -269 -84 -315 -141 -502 -433 -545 -851 -10
-94 -10 -4760 -1 -4855 4 -38 12 -95 18 -125 6 -30 13 -66 16 -80 3 -14 14
-54 26 -90 116 -359 365 -566 778 -647 86 -16 154 -18 745 -18 728 0 752 2
956 65 168 51 338 164 431 285 21 27 42 55 46 60 48 60 129 255 151 365 18 92
21 112 29 190 9 95 9 4752 0 4840 -39 368 -175 627 -413 785 -109 73 -249 131
-359 151 -17 3 -49 9 -71 14 -83 18 -235 23 -748 24 -291 1 -529 0 -530 0z
m853 -868 c108 -20 192 -72 238 -147 53 -88 51 34 51 -2379 1 -2401 3 -2282
-49 -2382 -23 -45 -30 -52 -80 -90 -71 -54 -126 -61 -450 -61 -357 1 -394 4
-485 48 -81 40 -122 88 -152 175 -17 53 -18 146 -18 2300 0 1235 3 2261 6
2280 16 92 77 178 155 218 78 40 153 47 460 46 159 -1 305 -4 324 -8z"/>
<path d="M10670 6043 c-247 -42 -417 -249 -445 -543 -3 -36 -8 -81 -10 -100
-4 -32 -9 -131 -20 -350 -6 -106 -5 -486 0 -540 2 -25 7 -72 10 -105 11 -114
17 -150 41 -250 51 -213 150 -339 312 -397 74 -26 276 -33 371 -12 215 46 339
191 400 469 20 90 22 117 28 418 l5 297 -291 0 -291 0 0 -132 0 -133 137 0
138 0 -1 -125 c-4 -343 -47 -484 -165 -545 -40 -21 -124 -27 -181 -12 -47 12
-102 64 -128 122 -24 53 -28 69 -34 140 -4 33 -8 76 -11 95 -5 36 -14 177 -21
310 -5 94 -5 609 0 670 29 357 114 495 298 484 129 -7 195 -90 233 -293 2 -13
6 -25 8 -27 4 -4 255 87 275 99 7 5 11 16 8 25 -3 10 -7 29 -10 45 -28 161
-159 306 -336 370 -41 14 -85 20 -175 22 -66 1 -131 0 -145 -2z"/>
<path d="M16264 6030 c-39 -10 -96 -31 -125 -46 -72 -37 -158 -125 -192 -198
-32 -65 -72 -213 -83 -302 -3 -33 -8 -67 -9 -76 -20 -102 -28 -761 -12 -938
17 -195 41 -312 84 -415 86 -204 221 -290 478 -302 320 -15 502 90 594 343 28
75 35 107 47 199 3 22 7 51 10 65 18 114 26 739 11 935 -42 568 -193 752 -617
753 -80 0 -137 -5 -186 -18z m303 -248 c81 -42 133 -134 154 -275 6 -39 12
-83 15 -97 9 -58 18 -333 18 -570 0 -368 -13 -520 -53 -651 -50 -160 -216
-239 -359 -172 -64 30 -120 109 -138 193 -12 56 -13 63 -19 110 -3 25 -8 54
-10 65 -20 97 -28 790 -12 964 31 329 119 463 300 457 40 -2 77 -10 104 -24z"/>
<path d="M22780 6033 c-30 -7 -62 -15 -71 -17 -35 -9 -116 -56 -155 -90 -107
-92 -173 -262 -199 -511 -28 -269 -27 -916 1 -1081 21 -125 28 -157 49 -221
39 -116 110 -223 182 -273 42 -29 141 -69 195 -78 55 -9 281 -9 333 0 110 20
187 59 260 133 121 120 173 288 193 620 14 247 7 777 -13 915 -59 402 -161
549 -420 603 -87 18 -281 19 -355 0z m260 -238 c70 -22 135 -104 164 -205 14
-49 19 -80 31 -180 25 -198 25 -920 1 -1060 -3 -14 -7 -43 -11 -65 -8 -58 -35
-135 -58 -170 -56 -82 -153 -131 -240 -121 -223 27 -273 205 -271 961 0 387 4
439 41 600 29 128 82 203 165 236 43 17 133 19 178 4z"/>
<path d="M32243 6029 c-171 -43 -273 -131 -336 -290 -25 -64 -54 -184 -63
-264 -3 -22 -7 -51 -9 -65 -27 -153 -27 -918 0 -1058 1 -9 6 -39 9 -67 34
-251 143 -422 316 -491 79 -32 123 -39 265 -39 144 0 191 6 270 36 227 84 327
286 353 714 9 156 9 653 0 775 -38 505 -147 694 -433 753 -100 21 -283 19
-372 -4z m277 -234 c40 -12 98 -63 124 -108 27 -47 52 -129 61 -197 3 -25 8
-61 10 -80 25 -191 25 -942 0 -1060 -2 -13 -7 -42 -10 -65 -21 -146 -100 -255
-207 -283 -51 -14 -136 -7 -175 13 -66 33 -124 115 -138 196 -3 18 -8 35 -10
39 -2 3 -6 26 -9 51 -3 24 -8 53 -10 64 -13 66 -20 271 -21 560 0 410 9 527
52 675 17 57 55 121 93 155 51 46 163 65 240 40z"/>
<path d="M11710 4885 l0 -1125 154 0 153 0 0 525 c0 289 3 529 7 532 13 13 25
-16 95 -232 40 -121 76 -229 81 -240 5 -11 50 -147 102 -302 l93 -283 157 0
c87 0 158 2 158 4 0 4 -66 191 -135 381 -109 300 -245 686 -245 694 0 5 10 13
23 17 36 11 119 68 160 110 21 21 51 64 66 94 25 49 36 82 57 180 3 14 7 84 9
155 9 346 -95 528 -342 596 -52 15 -108 18 -328 19 l-265 1 0 -1126z m499 847
c101 -50 142 -156 136 -352 -4 -145 -23 -209 -82 -267 -45 -46 -120 -74 -201
-77 l-45 -1 1 355 c0 195 1 361 1 368 2 23 128 6 190 -26z"/>
<path d="M13018 6003 c-8 -14 -1 -1807 6 -1853 32 -207 148 -343 339 -397 76
-22 287 -26 365 -8 174 41 279 150 328 340 17 65 18 137 20 998 l1 928 -151
-3 -151 -3 -1 -875 c-1 -481 -4 -895 -8 -919 -19 -133 -39 -179 -92 -212 -33
-21 -51 -24 -119 -23 -99 2 -147 21 -178 72 -57 90 -60 145 -61 1132 l-1 825
-147 3 c-80 1 -148 -1 -150 -5z"/>
<path d="M14500 4885 l0 -1125 154 0 155 0 0 491 c0 270 1 492 3 494 2 1 53 5
113 9 274 16 368 57 460 201 68 108 97 231 98 415 0 239 -54 420 -155 518
-113 110 -165 122 -540 122 l-288 0 0 -1125z m490 859 c122 -35 172 -142 172
-364 -1 -191 -34 -287 -117 -336 -54 -31 -89 -41 -170 -48 -57 -5 -65 -4 -66
11 0 27 -1 585 0 681 l1 83 63 -5 c34 -4 87 -13 117 -22z"/>
<path d="M18212 4885 l0 -1125 152 0 153 0 0 1125 0 1125 -153 0 -152 0 0
-1125z"/>
<path d="M18970 4885 l0 -1125 138 0 137 0 0 770 c0 424 0 770 1 770 4 0 241
-630 249 -660 2 -8 47 -130 100 -270 52 -140 125 -335 162 -432 l66 -178 121
0 121 0 0 1125 0 1126 -135 -3 -135 -3 0 -767 c0 -422 -3 -764 -8 -759 -4 4
-9 16 -12 27 -4 17 -266 721 -349 939 -19 50 -75 197 -123 327 l-88 238 -122
0 -123 0 0 -1125z"/>
<path d="M20639 5978 c0 -18 -2 -40 -4 -48 -1 -8 -5 -44 -9 -80 -3 -36 -8 -85
-11 -110 -2 -25 -7 -74 -10 -110 -3 -36 -8 -81 -10 -100 -2 -19 -6 -64 -10
-100 -3 -36 -8 -81 -10 -100 -2 -19 -7 -69 -10 -110 -3 -41 -8 -86 -10 -100
-2 -14 -6 -59 -10 -100 -4 -41 -8 -86 -10 -100 -2 -14 -6 -59 -10 -100 -3 -41
-7 -91 -10 -110 -2 -19 -7 -62 -10 -95 -3 -33 -8 -78 -10 -100 -2 -22 -7 -66
-10 -97 -11 -125 -16 -174 -20 -203 -2 -16 -7 -66 -11 -110 -3 -44 -8 -91 -10
-105 -1 -14 -5 -59 -9 -100 -3 -41 -8 -90 -11 -107 l-5 -33 146 0 145 0 1 43
c1 23 3 51 4 62 5 39 19 214 41 500 2 39 7 81 9 95 2 14 6 70 10 125 3 55 8
116 10 135 2 19 7 70 10 113 3 42 8 96 10 120 13 143 18 205 17 227 -1 25 -1
25 8 3 8 -20 155 -729 180 -868 5 -27 21 -104 35 -170 14 -66 28 -133 31 -150
2 -16 14 -73 24 -127 11 -53 20 -99 20 -102 0 -3 44 -6 99 -6 l98 0 8 43 c12
64 14 72 44 212 16 72 32 148 37 170 4 22 8 42 9 45 1 3 7 32 14 65 7 33 28
131 47 218 18 87 36 172 39 189 3 17 8 34 10 38 3 4 6 22 9 41 2 19 10 57 16
84 6 28 13 59 16 70 2 11 14 70 26 130 25 125 38 151 39 80 0 -28 2 -61 4 -75
2 -14 6 -65 9 -115 4 -49 9 -106 11 -125 2 -19 7 -78 10 -130 3 -52 8 -108 10
-125 2 -16 6 -68 10 -115 3 -47 8 -110 11 -140 2 -30 6 -86 9 -125 3 -38 7
-92 10 -120 2 -27 7 -88 11 -135 3 -47 8 -96 9 -110 2 -14 4 -35 4 -48 1 -23
1 -23 144 -20 87 2 141 7 141 13 -2 12 -12 119 -19 200 -3 33 -7 76 -10 95 -4
33 -6 57 -21 220 -3 36 -7 81 -9 100 -4 39 -12 121 -20 220 -3 36 -7 83 -10
105 -2 22 -7 67 -10 100 -3 33 -8 78 -10 100 -2 22 -7 72 -10 110 -3 39 -8 86
-10 105 -4 38 -12 118 -20 205 -3 30 -7 80 -10 110 -8 88 -14 153 -25 260 -5
55 -12 134 -16 175 -4 41 -8 82 -10 90 -1 8 -3 21 -3 28 -1 10 -31 12 -133 10
l-132 -3 -8 -36 c-4 -20 -9 -47 -12 -60 -2 -13 -14 -71 -26 -129 -12 -58 -24
-116 -26 -130 -3 -14 -18 -88 -34 -166 -16 -77 -32 -154 -34 -170 -3 -16 -20
-94 -37 -174 -17 -80 -32 -154 -34 -165 -1 -11 -12 -65 -24 -120 -11 -55 -23
-116 -26 -135 -4 -19 -14 -73 -24 -120 -11 -47 -22 -102 -25 -123 -4 -21 -11
-35 -17 -32 -5 4 -7 10 -4 14 2 5 0 23 -5 42 -11 36 -20 80 -25 115 -2 11 -8
45 -14 75 -6 30 -13 63 -15 74 -48 235 -116 577 -119 595 -3 14 -33 166 -68
338 l-63 312 -133 0 -133 0 -1 -32z"/>
<path d="M24010 5998 c-1 -19 -1 -2210 -1 -2226 1 -19 528 -16 601 3 175 46
293 177 333 370 20 98 15 326 -9 407 -3 9 -7 25 -9 36 -9 49 -63 141 -109 188
-55 55 -95 79 -160 98 l-41 12 61 33 c58 30 164 124 164 143 0 5 6 16 14 23 7
7 26 53 42 102 27 83 29 97 28 253 0 151 -3 172 -27 245 -59 177 -165 270
-352 309 -95 20 -535 23 -535 4z m460 -249 c42 -14 95 -52 116 -84 30 -45 46
-129 49 -258 6 -270 -66 -375 -274 -402 l-51 -6 0 385 0 385 63 -4 c34 -3 78
-10 97 -16z m-11 -994 c127 -39 184 -165 183 -400 -2 -238 -71 -325 -279 -351
l-53 -6 0 391 0 390 48 -4 c26 -2 71 -11 101 -20z"/>
<path d="M25372 4885 l0 -1125 152 0 153 0 0 1125 0 1125 -153 0 -153 0 1
-1125z"/>
<path d="M26150 4885 l0 -1125 409 0 409 0 0 130 1 130 -255 0 c-196 0 -254 3
-255 13 0 6 -1 454 -1 995 l-1 982 -154 0 -153 0 0 -1125z"/>
<path d="M27372 4885 l0 -1125 152 0 153 0 -1 1123 -1 1122 -151 3 -152 3 0
-1126z"/>
<path d="M28569 6003 c0 -5 -2 -15 -4 -23 -2 -8 -9 -42 -15 -75 -6 -33 -15
-73 -20 -90 -5 -16 -12 -43 -15 -60 -2 -16 -7 -39 -9 -50 -5 -21 -31 -141 -40
-185 -3 -14 -42 -191 -86 -395 -44 -203 -83 -383 -86 -399 -2 -16 -6 -32 -8
-35 -2 -3 -7 -24 -10 -46 -4 -22 -9 -47 -11 -55 -3 -8 -18 -80 -35 -160 -17
-80 -33 -153 -35 -164 -62 -289 -80 -373 -95 -433 l-17 -73 148 0 147 0 16 88
c9 48 19 98 22 112 3 14 7 38 9 53 2 15 12 66 21 113 l17 84 233 0 c128 0 235
-3 237 -7 3 -5 8 -26 11 -48 4 -22 13 -76 22 -120 17 -91 33 -176 40 -220 9
-57 3 -55 160 -55 l147 0 -7 33 c-8 35 -13 60 -20 92 -13 64 -38 176 -46 210
-6 22 -12 51 -14 65 -2 14 -18 88 -36 164 -25 112 -68 312 -85 396 -3 15 -28
127 -86 391 -16 74 -32 148 -35 165 -3 16 -9 45 -14 64 -8 32 -45 202 -56 260
-3 14 -9 41 -14 60 -5 19 -11 46 -14 60 -3 14 -14 68 -26 120 -11 52 -24 112
-27 133 l-6 37 -128 0 c-71 0 -129 -3 -130 -7z m156 -653 c8 -47 18 -98 20
-115 3 -16 10 -52 15 -80 6 -27 12 -61 15 -75 3 -14 10 -52 15 -85 5 -33 12
-71 15 -85 3 -14 9 -50 15 -80 6 -30 12 -66 15 -80 6 -29 23 -122 30 -165 3
-16 8 -37 10 -45 2 -8 7 -36 10 -62 l7 -48 -197 0 c-108 0 -194 4 -191 8 5 8
43 223 52 292 2 19 7 42 10 51 2 10 6 30 9 45 3 23 40 239 61 354 2 14 6 39 9
55 3 17 12 66 20 110 22 123 23 129 25 145 2 18 14 -27 35 -140z"/>
<path d="M29660 4886 l0 -1126 154 0 154 0 0 526 c0 289 3 528 6 531 4 4 10 2
15 -3 5 -5 87 -244 182 -531 l174 -523 157 0 c87 0 158 2 158 4 0 2 -29 84
-64 182 -177 493 -316 886 -316 894 0 5 10 12 23 16 12 4 45 21 72 39 160 103
225 262 220 545 -3 159 -9 195 -45 288 -50 129 -130 207 -262 254 -58 21 -84
22 -345 26 l-283 4 0 -1126z m486 855 c111 -50 157 -166 150 -380 -4 -114 -25
-185 -72 -239 -43 -51 -95 -73 -202 -87 -52 -6 -52 -6 -52 22 -1 39 -1 618 -1
671 l1 44 67 -7 c37 -3 86 -14 109 -24z"/>
<path d="M31043 4885 l0 -1125 153 0 153 0 0 1125 -1 1125 -152 0 -153 0 0
-1125z"/>
</g>
</svg>
